<?xml version="1.0" standalone="no"?>
<!DOCTYPE svg PUBLIC "-//W3C//DTD SVG 20010904//EN"
 "http://www.w3.org/TR/2001/REC-SVG-20010904/DTD/svg10.dtd">
<svg version="1.0" xmlns="http://www.w3.org/2000/svg"
 width="217.000000pt" height="217.000000pt" viewBox="0 0 217.000000 217.000000"
 preserveAspectRatio="xMidYMid meet">
<metadata>
Created by potrace 1.14, written by Peter Selinger 2001-2017
</metadata>
<g transform="translate(0.000000,217.000000) scale(0.100000,-0.100000)"
fill="#000000" stroke="none">
<path d="M0 1085 l0 -1085 1085 0 1085 0 0 1085 0 1085 -1085 0 -1085 0 0
-1085z m1317 838 c128 -87 295 -201 373 -253 l140 -95 -2 -479 -3 -480 -372
-253 -373 -253 -267 181 c-148 100 -316 215 -375 256 l-108 74 0 478 0 477
143 96 c78 53 246 166 372 252 127 86 232 156 235 156 3 0 110 -71 237 -157z"/>
<path d="M758 1728 l-308 -210 0 -418 0 -418 54 -39 c193 -135 567 -383 578
-383 7 1 150 95 318 209 l305 208 3 420 2 420 -172 117 c-95 65 -235 160 -311
212 -76 52 -143 94 -150 93 -6 0 -150 -95 -319 -211z m270 -983 l-3 -356 -247
167 -248 167 0 151 1 151 40 28 c21 15 44 27 49 27 6 0 10 -59 10 -154 l0
-154 148 -100 147 -101 3 587 3 587 47 32 47 33 3 -355 c1 -195 1 -515 0 -710z
m372 885 l230 -155 0 -115 0 -115 -200 -135 -200 -135 -1 -245 c-1 -135 -1
-252 0 -261 1 -9 -11 -24 -26 -34 -15 -10 -38 -25 -50 -33 l-23 -14 0 712 c0
710 0 712 20 699 11 -8 123 -84 250 -169z"/>
<path d="M1230 1356 l0 -265 150 102 149 102 0 65 0 65 -142 95 c-78 52 -145
97 -149 98 -5 2 -8 -116 -8 -262z"/>
</g>
</svg>
